<svg width="12" height="16" viewBox="0 0 12 16" fill="none" xmlns="http://www.w3.org/2000/svg">
<path d="M0.351401 6.53634L0.696267 6.17431C0.631646 6.11275 0.581939 6.04091 0.54876 5.96366C0.51561 5.88647 0.499278 5.80469 0.500024 5.72284C0.500771 5.64099 0.518595 5.55941 0.553203 5.48267C0.587843 5.40586 0.638945 5.33471 0.704808 5.27412L0.704859 5.27417L0.711138 5.26819L5.51018 0.696708L5.51054 0.696364C5.5742 0.635598 5.6513 0.586314 5.73793 0.552573L5.73962 0.551907C5.91539 0.482698 6.11409 0.482698 6.28986 0.55191L6.29156 0.55257C6.37818 0.586314 6.45528 0.635599 6.51895 0.696365L6.51931 0.696708L11.3148 5.26477C11.4378 5.38749 11.5014 5.54602 11.5 5.70549C11.4985 5.86613 11.431 6.02496 11.3037 6.14622C11.1756 6.26824 10.9975 6.34139 10.8065 6.34297C10.6169 6.34454 10.4384 6.27533 10.308 6.15674L7.56057 3.53954L6.7157 2.73474V3.90157V14.8571C6.7157 15.0196 6.64818 15.1806 6.51943 15.3032C6.38986 15.4267 6.20916 15.5 6.01594 15.5C5.82273 15.5 5.64202 15.4267 5.51245 15.3032C5.3837 15.1806 5.31618 15.0196 5.31618 14.8571V3.90157V2.73544L4.47147 3.53939L1.71802 6.15999L1.71797 6.15994L1.71163 6.16619C1.64821 6.22874 1.57103 6.2799 1.48394 6.31554C1.39681 6.35119 1.30228 6.37026 1.20605 6.37106C1.10981 6.37185 1.01489 6.35435 0.927016 6.32011C0.839179 6.28587 0.760941 6.23592 0.696268 6.17431L0.351401 6.53634Z" fill="#0E9F6E" stroke="#0E9F6E"/>
</svg>
