<svg width="16" height="16" viewBox="0 0 16 16" fill="none" xmlns="http://www.w3.org/2000/svg">
<path d="M13.3029 9.83894L13.3033 9.83932C13.432 9.96174 13.4998 10.1227 13.5 10.2852C13.5002 10.4476 13.4331 10.6086 13.3051 10.7312C13.305 10.7314 13.3048 10.7315 13.3047 10.7316L8.51153 15.3022L8.51117 15.3025C8.44761 15.3632 8.37066 15.4125 8.28424 15.4462L8.28423 15.4461L8.27991 15.4479C8.19452 15.4821 8.10204 15.5 8.00809 15.5C7.91414 15.5 7.82166 15.4821 7.73627 15.4479L7.73628 15.4479L7.73194 15.4462C7.64552 15.4125 7.56857 15.3632 7.50501 15.3025L7.50465 15.3022L2.71092 10.7311L2.71097 10.731L2.70459 10.7251C2.63884 10.6646 2.58779 10.5934 2.55317 10.5166C2.51859 10.4398 2.50077 10.3582 2.50002 10.2763C2.49928 10.1944 2.51561 10.1126 2.54873 10.0354C2.58189 9.95808 2.63155 9.88625 2.69606 9.82473C2.76063 9.76315 2.83872 9.71325 2.92635 9.67906C3.01402 9.64486 3.10872 9.62739 3.2047 9.62818C3.30069 9.62898 3.395 9.64802 3.48192 9.68362C3.56881 9.71922 3.64585 9.77033 3.70917 9.83284L3.70911 9.8329L3.7154 9.83889L6.46341 12.4593L7.30846 13.2651V12.0974V1.14278C7.30846 0.98018 7.37597 0.819145 7.50452 0.696568C7.63388 0.573219 7.81419 0.5 8.00689 0.5C8.1996 0.5 8.3799 0.573219 8.50926 0.696567C8.63781 0.819145 8.70532 0.98018 8.70532 1.14278V12.0974V13.2651L9.55037 12.4593L12.2983 9.83894C12.2983 9.83892 12.2984 9.83891 12.2984 9.83889C12.4277 9.71562 12.608 9.64244 12.8006 9.64244C12.9933 9.64244 13.1736 9.71563 13.3029 9.83894Z" fill="#F05252" stroke="#F05252"/>
</svg>
