<svg width="48" height="48" viewBox="0 0 48 48" fill="none" xmlns="http://www.w3.org/2000/svg">
<path d="M0 8C0 3.58172 3.58172 0 8 0H40C44.4183 0 48 3.58172 48 8V40C48 44.4183 44.4183 48 40 48H8C3.58172 48 0 44.4183 0 40V8Z" fill="#15A033" fill-opacity="0.15"/>
<path d="M24.3834 22.4784C23.3489 22.2281 22.4399 21.5549 21.8412 20.5956C21.7451 20.4437 21.6782 20.272 21.6445 20.0908C21.6107 19.9097 21.6109 19.7229 21.6449 19.5418C21.9404 18.3709 23.6089 17.7187 25.223 18.1496C25.9758 18.3317 26.6582 18.7668 27.1753 19.3943C27.3111 19.5714 27.4775 19.7174 27.6649 19.8237C27.8523 19.93 28.0569 19.9946 28.2672 20.0138C28.4774 20.033 28.689 20.0064 28.8898 19.9355C29.0906 19.8646 29.2767 19.7508 29.4373 19.6007C29.5979 19.4506 29.7299 19.2671 29.8256 19.0608C29.9214 18.8545 29.979 18.6295 29.9953 18.3986C30.0115 18.1678 29.986 17.9357 29.9202 17.7157C29.8544 17.4958 29.7496 17.2922 29.6119 17.1168C28.6586 15.9278 27.3904 15.0959 25.9847 14.7376C25.8994 14.7142 25.8162 14.7118 25.7308 14.6931V13.7564C25.7308 13.2905 25.5622 12.8438 25.2621 12.5144C24.962 12.185 24.555 12 24.1306 12C23.7062 12 23.2992 12.185 22.9991 12.5144C22.699 12.8438 22.5304 13.2905 22.5304 13.7564V14.7212C21.6109 14.9154 20.7565 15.3791 20.0576 16.0631C19.3587 16.747 18.8415 17.6258 18.5608 18.6062C18.4117 19.2402 18.381 19.9007 18.4704 20.548C18.5599 21.1953 18.7677 21.8161 19.0814 22.373C20.1136 24.1568 21.7471 25.4197 23.6249 25.8857C24.6599 26.1364 25.569 26.8105 26.1672 27.7709C26.2634 27.9227 26.3305 28.0944 26.3644 28.2756C26.3983 28.4567 26.3984 28.6435 26.3645 28.8247C26.0669 29.9956 24.3973 30.6455 22.7854 30.2169C22.0249 30.0348 21.3366 29.5929 20.8192 28.9547C20.5456 28.6016 20.156 28.3815 19.7352 28.3424C19.3144 28.3033 18.8966 28.4484 18.5729 28.746C18.2491 29.0435 18.0456 29.4695 18.0068 29.931C17.968 30.3926 18.0969 30.8522 18.3656 31.2098C19.3225 32.422 20.6052 33.2698 22.029 33.6313C22.1954 33.6758 22.3608 33.698 22.5272 33.7308V34.2436C22.5272 34.7095 22.6958 35.1562 22.9959 35.4856C23.296 35.815 23.703 36 24.1274 36C24.5518 36 24.9588 35.815 25.2589 35.4856C25.559 35.1562 25.7276 34.7095 25.7276 34.2436V33.5938C26.5977 33.3652 27.3985 32.8918 28.0511 32.2202C28.7038 31.5486 29.1858 30.702 29.4497 29.7638C29.5985 29.1297 29.6289 28.4692 29.5393 27.8219C29.4497 27.1746 29.2418 26.5539 28.9281 25.997C27.8963 24.2111 26.2624 22.9461 24.3834 22.4784Z" fill="#15A033"/>
</svg>
