<svg width="21" height="21" viewBox="0 0 21 21" fill="none" xmlns="http://www.w3.org/2000/svg">
<g clip-path="url(#clip0_320_4315)">
<path d="M20.3334 10.5C20.3334 4.97719 15.8562 0.5 10.3334 0.5C4.81056 0.5 0.333374 4.97719 0.333374 10.5C0.333374 15.4913 3.99025 19.6284 8.77087 20.3785V13.3906H6.23181V10.5H8.77087V8.29688C8.77087 5.79063 10.2638 4.40625 12.5481 4.40625C13.6421 4.40625 14.7865 4.60156 14.7865 4.60156V7.0625H13.5256C12.2833 7.0625 11.8959 7.83336 11.8959 8.62422V10.5H14.6693L14.226 13.3906H11.8959V20.3785C16.6765 19.6284 20.3334 15.4913 20.3334 10.5Z" fill="#1877F2"/>
<path d="M14.226 13.3906L14.6693 10.5H11.8959V8.62422C11.8959 7.83328 12.2833 7.0625 13.5256 7.0625H14.7865V4.60156C14.7865 4.60156 13.6421 4.40625 12.548 4.40625C10.2638 4.40625 8.77087 5.79063 8.77087 8.29688V10.5H6.23181V13.3906H8.77087V20.3785C9.28776 20.4595 9.81018 20.5001 10.3334 20.5C10.8566 20.5001 11.379 20.4595 11.8959 20.3785V13.3906H14.226Z" fill="white"/>
</g>
<defs>
<clipPath id="clip0_320_4315">
<rect width="20" height="20" fill="white" transform="translate(0.333374 0.5)"/>
</clipPath>
</defs>
</svg>
