<svg width="21" height="21" viewBox="0 0 21 21" fill="none" xmlns="http://www.w3.org/2000/svg">
<g clip-path="url(#clip0_320_4221)">
<path d="M15.6459 0.5H5.02087C2.43204 0.5 0.333374 2.59867 0.333374 5.1875V15.8125C0.333374 18.4013 2.43204 20.5 5.02087 20.5H15.6459C18.2347 20.5 20.3334 18.4013 20.3334 15.8125V5.1875C20.3334 2.59867 18.2347 0.5 15.6459 0.5Z" fill="url(#paint0_radial_320_4221)"/>
<path d="M15.6459 0.5H5.02087C2.43204 0.5 0.333374 2.59867 0.333374 5.1875V15.8125C0.333374 18.4013 2.43204 20.5 5.02087 20.5H15.6459C18.2347 20.5 20.3334 18.4013 20.3334 15.8125V5.1875C20.3334 2.59867 18.2347 0.5 15.6459 0.5Z" fill="url(#paint1_radial_320_4221)"/>
<path d="M10.3341 2.6875C8.21236 2.6875 7.94603 2.6968 7.11275 2.73469C6.28103 2.77281 5.7133 2.90445 5.21658 3.09766C4.70267 3.29719 4.26681 3.56414 3.83259 3.99852C3.39798 4.43281 3.13103 4.86867 2.93087 5.38234C2.73712 5.87922 2.60533 6.44719 2.56791 7.27852C2.53064 8.11188 2.52087 8.37828 2.52087 10.5001C2.52087 12.6219 2.53025 12.8873 2.56806 13.7206C2.60634 14.5523 2.73798 15.1201 2.93103 15.6168C3.13072 16.1307 3.39767 16.5666 3.83205 17.0008C4.26619 17.4354 4.70205 17.703 5.21556 17.9025C5.71267 18.0957 6.28048 18.2273 7.11205 18.2655C7.94541 18.3034 8.2115 18.3127 10.3331 18.3127C12.4551 18.3127 12.7206 18.3034 13.5538 18.2655C14.3856 18.2273 14.9539 18.0957 15.451 17.9025C15.9647 17.703 16.3999 17.4354 16.834 17.0008C17.2686 16.5666 17.5355 16.1307 17.7357 15.617C17.9277 15.1201 18.0596 14.5522 18.0987 13.7208C18.1361 12.8875 18.1459 12.6219 18.1459 10.5001C18.1459 8.37828 18.1361 8.11203 18.0987 7.27867C18.0596 6.44695 17.9277 5.8793 17.7357 5.38258C17.5355 4.86867 17.2686 4.43281 16.834 3.99852C16.3995 3.56398 15.9649 3.29703 15.4506 3.09773C14.9525 2.90445 14.3845 2.77273 13.5527 2.73469C12.7194 2.6968 12.4541 2.6875 10.3317 2.6875H10.3341ZM9.63322 4.09539C9.84126 4.09508 10.0734 4.09539 10.3341 4.09539C12.4201 4.09539 12.6673 4.10289 13.491 4.14031C14.2527 4.17516 14.6662 4.30242 14.9416 4.40938C15.3062 4.55094 15.5661 4.72023 15.8394 4.99375C16.1128 5.26719 16.282 5.52758 16.424 5.89219C16.531 6.16719 16.6584 6.58063 16.6931 7.34234C16.7305 8.16594 16.7386 8.41328 16.7386 10.4983C16.7386 12.5833 16.7305 12.8307 16.6931 13.6542C16.6582 14.4159 16.531 14.8294 16.424 15.1045C16.2824 15.4691 16.1128 15.7287 15.8394 16.002C15.566 16.2754 15.3063 16.4446 14.9416 16.5863C14.6665 16.6937 14.2527 16.8206 13.491 16.8555C12.6674 16.8929 12.4201 16.901 10.3341 16.901C8.24798 16.901 8.00072 16.8929 7.1772 16.8555C6.41548 16.8203 6.00205 16.693 5.72642 16.5861C5.36189 16.4445 5.10142 16.2752 4.82798 16.0018C4.55455 15.7284 4.38533 15.4686 4.24337 15.1038C4.13642 14.8287 4.009 14.4153 3.97431 13.6536C3.93689 12.83 3.92939 12.5827 3.92939 10.4963C3.92939 8.41008 3.93689 8.16398 3.97431 7.34039C4.00916 6.57867 4.13642 6.16523 4.24337 5.88984C4.38501 5.52523 4.55455 5.26484 4.82806 4.99141C5.1015 4.71797 5.36189 4.54867 5.7265 4.4068C6.00189 4.29938 6.41548 4.17242 7.1772 4.13742C7.89791 4.10484 8.1772 4.09508 9.63322 4.09344V4.09539ZM14.5044 5.39258C13.9868 5.39258 13.5669 5.81211 13.5669 6.32977C13.5669 6.84734 13.9868 7.26727 14.5044 7.26727C15.022 7.26727 15.4419 6.84734 15.4419 6.32977C15.4419 5.81219 15.022 5.39227 14.5044 5.39227V5.39258ZM10.3341 6.48797C8.11845 6.48797 6.32205 8.28438 6.32205 10.5001C6.32205 12.7158 8.11845 14.5113 10.3341 14.5113C12.5498 14.5113 14.3456 12.7158 14.3456 10.5001C14.3456 8.28445 12.5496 6.48797 10.3339 6.48797H10.3341ZM10.3341 7.89586C11.7723 7.89586 12.9383 9.06172 12.9383 10.5001C12.9383 11.9383 11.7723 13.1043 10.3341 13.1043C8.8958 13.1043 7.72994 11.9383 7.72994 10.5001C7.72994 9.06172 8.8958 7.89586 10.3341 7.89586Z" fill="white"/>
</g>
<defs>
<radialGradient id="paint0_radial_320_4221" cx="0" cy="0" r="1" gradientUnits="userSpaceOnUse" gradientTransform="translate(5.64587 22.0404) rotate(-90) scale(19.8215 18.4355)">
<stop stop-color="#FFDD55"/>
<stop offset="0.1" stop-color="#FFDD55"/>
<stop offset="0.5" stop-color="#FF543E"/>
<stop offset="1" stop-color="#C837AB"/>
</radialGradient>
<radialGradient id="paint1_radial_320_4221" cx="0" cy="0" r="1" gradientUnits="userSpaceOnUse" gradientTransform="translate(-3.0167 1.9407) rotate(78.681) scale(8.86031 36.5225)">
<stop stop-color="#3771C8"/>
<stop offset="0.128" stop-color="#3771C8"/>
<stop offset="1" stop-color="#6600FF" stop-opacity="0"/>
</radialGradient>
<clipPath id="clip0_320_4221">
<rect width="20" height="20" fill="white" transform="translate(0.333374 0.5)"/>
</clipPath>
</defs>
</svg>
